<svg version="1.0" xmlns="http://www.w3.org/2000/svg" width="150" height="150">
    <g id="circles" stroke="black" stroke-width="15">
        <circle cx="75" cy="75" r="50"/>
        <circle cx="75" cy="75" r="40" stroke="darkgrey" stroke-width="5" fill="darkgrey"/>
        <circle cx="75" cy="75" r="5" stroke="white" fill="white"/>
        <circle cx="55" cy="55" r="5" stroke="white" stroke-width="1" fill="white"/>
        <circle cx="55" cy="55" r="5" stroke="white" stroke-width="1" fill="white" transform="rotate(90 75 75)"/>
        <circle cx="55" cy="55" r="5" stroke="white" stroke-width="1" fill="white" transform="rotate(180 75 75)"/>
        <circle cx="55" cy="55" r="5" stroke="white" stroke-width="1" fill="white" transform="rotate(270 75 75)"/>
    </g>
    <g id="teeth" fill="black">
        <polygon points="71,4 79,4 83,20 67,20"/>
        <polygon points="71,4 79,4 83,20 67,20" transform="rotate(20 75 75)"/>
        <polygon points="71,4 79,4 83,20 67,20" transform="rotate(40 75 75)"/>
        <polygon points="71,4 79,4 83,20 67,20" transform="rotate(60 75 75)"/>
        <polygon points="71,4 79,4 83,20 67,20" transform="rotate(80 75 75)"/>
        <polygon points="71,4 79,4 83,20 67,20" transform="rotate(100 75 75)"/>
        <polygon points="71,4 79,4 83,20 67,20" transform="rotate(120 75 75)"/>
        <polygon points="71,4 79,4 83,20 67,20" transform="rotate(140 75 75)"/>
        <polygon points="71,4 79,4 83,20 67,20" transform="rotate(160 75 75)"/>
        <polygon points="71,4 79,4 83,20 67,20" transform="rotate(180 75 75)"/>
        <polygon points="71,4 79,4 83,20 67,20" transform="rotate(200 75 75)"/>
        <polygon points="71,4 79,4 83,20 67,20" transform="rotate(220 75 75)"/>
        <polygon points="71,4 79,4 83,20 67,20" transform="rotate(240 75 75)"/>
        <polygon points="71,4 79,4 83,20 67,20" transform="rotate(260 75 75)"/>
        <polygon points="71,4 79,4 83,20 67,20" transform="rotate(280 75 75)"/>
        <polygon points="71,4 79,4 83,20 67,20" transform="rotate(300 75 75)"/>
        <polygon points="71,4 79,4 83,20 67,20" transform="rotate(320 75 75)"/>
        <polygon points="71,4 79,4 83,20 67,20" transform="rotate(340 75 75)"/>
    </g>
</svg>